# xmcd
#
# Track frame offsets:
#	150
#	14395
#	35487
#	52414
#	64868
#	81144
#	101566
#	120864
#	132532
#	152940
#	171911
#	190155
#	203752
#	219257
#	236282
#	251347
#	264315
#
# Disc length: 3757 seconds
#
# Revision: 0
# Processed by: cddbd v1.5.2PL0 Copyright (c) Steve Scherf et al.
# Submitted via: EasyCDDAExtractor 16.0.6.1
#
DISCID=e80eab11
DTITLE=Johnny Hansen - My Favorite Country Songs 2
DYEAR=2016
DGENRE=Country
TTITLE0=Rose Garden
TTITLE1=Jim And Jack And Hank
TTITLE2=The Gambler
TTITLE3=Close Up The Honky Tonks
TTITLE4=Don't Play Your Dirty Tricks
TTITLE5=Back Home Again
TTITLE6=Island In The Stream
TTITLE7=Little Bitty
TTITLE8=Runaway Train
TTITLE9=Lone Ranger
TTITLE10=All You Ever Do Is Bring Me Down
TTITLE11=Blue Eyes Crying In The Rain
TTITLE12=The Next Time I'm In Town
TTITLE13=Jeg Savner Dig
TTITLE14=Six Days On The Road
TTITLE15=Let Me Be There
TTITLE16=Just When I Needed You Most
EXTD=
EXTT0=
EXTT1=
EXTT2=
EXTT3=
EXTT4=
EXTT5=
EXTT6=
EXTT7=
EXTT8=
EXTT9=
EXTT10=
EXTT11=
EXTT12=
EXTT13=
EXTT14=
EXTT15=
EXTT16=
PLAYORDER=
